<?xml version="1.0" encoding="utf-8"?>
<!-- Generator: Adobe Illustrator 15.0.0, SVG Export Plug-In . SVG Version: 6.00 Build 0)  -->
<!DOCTYPE svg PUBLIC "-//W3C//DTD SVG 1.1 Tiny//EN" "http://www.w3.org/Graphics/SVG/1.1/DTD/svg11-tiny.dtd">
<svg version="1.1" baseProfile="tiny" id="Layer_1" xmlns="http://www.w3.org/2000/svg" xmlns:xlink="http://www.w3.org/1999/xlink"
	 x="0px" y="0px" width="44px" height="44px" viewBox="0 0 44 44" xml:space="preserve">
<rect x="0" fill="none" width="44" height="44"/>
<g>
	<path fill="#FFFF00" d="M42.08,41.413c-3.086-1.466-5.832-5.08-8.584-7.183c-2.021-1.545-3.972-5.012-6.774-5.103
		c-2.863-0.094-6.584,3.089-8.91,4.502c-3.852,2.341-7.648,6.025-12.196,6.775c0.582,0.537,1.164,1.074,1.745,1.61
		c0.31-2.758,2.481-6.333,3.869-8.645c1.312-2.184,3.694-3.332,5.043-5.418c0.266-0.412,0.406-1.047,0.125-1.496
		c-2.839-4.562-9.055-5.874-12.261-10.172c-0.166,0.771-0.332,1.542-0.498,2.313c2.569-1.218,5.779-1.334,8.556-1.753
		c1.932-0.292,4.757,0.488,6.569-0.372c1.552-0.736,1.656-2.599,2.042-4.03c0.936-3.472,1.387-6.824,3.291-9.962
		c-0.857-0.072-1.714-0.144-2.571-0.215c2.472,4.02,3.057,9.67,6.146,13.305c0.763,0.897,1.82,1.181,2.971,1.098
		c3.663-0.264,7.289-0.396,10.966-0.37c1.912,0.014,2.204-2.958,0.281-2.972c-2.629-0.019-11.477,1.486-12.671-1.132
		c-1.661-3.645-2.908-7.813-4.997-11.21c-0.538-0.875-1.93-1.27-2.57-0.215c-1.178,1.942-1.965,3.861-2.584,6.057
		c-0.813,2.888-0.248,6.78-3.944,6.836c-4.028,0.062-9.08,0.492-12.765,2.24c-0.912,0.433-1.068,1.548-0.498,2.313
		c1.517,2.034,3.434,3.363,5.546,4.74c1.225,0.798,2.407,1.64,3.595,2.492c2.456,1.761,1.814,1.877-0.156,3.728
		c-3.01,2.827-6.001,8.491-6.458,12.56C4.28,42.71,5.191,43.5,6.134,43.345c6.76-1.115,12.783-7.178,18.726-10.355
		c2.703-1.445,6.068,3.032,8.241,4.692c2.789,2.131,4.733,5.006,7.943,6.53C42.787,45.04,43.803,42.23,42.08,41.413L42.08,41.413z"
		/>
</g>
<g>
	<path fill="#FFFF00" d="M41.222,14.549c-3.11,3.223-7.906,4.591-11.438,7.375c-0.633,0.5-0.691,1.506-0.172,2.104
		c4.22,4.861,8.543,10.979,10.355,17.23c0.53,1.828,3.475,1.329,2.939-0.518c-1.96-6.761-6.432-13.359-11.02-18.644
		c-0.058,0.701-0.114,1.402-0.172,2.103c3.559-2.806,8.278-4.103,11.438-7.375C44.476,15.456,42.562,13.162,41.222,14.549
		L41.222,14.549z"/>
</g>
</svg>
